<svg width="15" height="14" viewBox="0 0 15 14" fill="none" xmlns="http://www.w3.org/2000/svg">
<g clip-path="url(#clip0_2_398)">
<path fill-rule="evenodd" clip-rule="evenodd" d="M12.3375 0.754395L13.1624 1.57935L12.4082 2.33354L14.1582 4.08354L11.2916 6.95017L9.54162 5.20016L7.93953 6.80225C8.11888 7.04482 8.26906 7.30848 8.38645 7.5879C8.58013 8.04893 8.68071 8.54372 8.68238 9.04379C8.68406 9.54385 8.5868 10.0393 8.39621 10.5016C8.20561 10.964 7.92545 11.384 7.57185 11.7376C7.21825 12.0912 6.7982 12.3714 6.33588 12.562C5.87356 12.7526 5.3781 12.8498 4.87804 12.8481C4.37797 12.8465 3.88318 12.7459 3.42215 12.5522C2.96111 12.3585 2.54295 12.0755 2.19172 11.7196L2.18735 11.7151C1.49666 11 1.11451 10.0422 1.12315 9.04806C1.13179 8.0539 1.53055 7.1029 2.23356 6.39989C2.93656 5.69689 3.88756 5.29812 4.88172 5.28948C5.68254 5.28252 6.45975 5.52915 7.10553 5.98634L12.3375 0.754395ZM11.5833 3.1585L10.3666 4.37521L11.2916 5.30025L12.5083 4.08354L11.5833 3.1585ZM6.76599 7.21963L6.73829 7.19287C6.24321 6.71471 5.58013 6.45012 4.89186 6.45611C4.20359 6.46209 3.54521 6.73815 3.05852 7.22485C2.57182 7.71155 2.29575 8.36993 2.28977 9.0582C2.2838 9.74543 2.54758 10.4076 3.02439 10.9024C3.26709 11.1478 3.5558 11.3429 3.87402 11.4766C4.1932 11.6107 4.53575 11.6803 4.88194 11.6815C5.22814 11.6826 5.57115 11.6153 5.89122 11.4834C6.21129 11.3514 6.50209 11.1574 6.74689 10.9126C6.99169 10.6678 7.18565 10.377 7.3176 10.057C7.44955 9.7369 7.51688 9.3939 7.51572 9.0477C7.51456 8.7015 7.44493 8.35895 7.31084 8.03977C7.18253 7.73435 6.99762 7.4561 6.76599 7.21963Z" fill="#F7F5F9"/>
</g>
<defs>
<clipPath id="clip0_2_398">
<rect width="14" height="14" fill="white" transform="translate(0.5)"/>
</clipPath>
</defs>
</svg>
