<svg width="103" height="24" viewBox="0 0 103 24" fill="none" xmlns="http://www.w3.org/2000/svg">
<path d="M40.45 7.2L37.188 14.928L33.926 7.2H31L35.536 17H38.84L43.376 7.2H40.45ZM44.073 17H46.593V9.538H44.073V17ZM45.333 8.796C46.103 8.796 46.635 8.362 46.635 7.606C46.635 6.85 46.103 6.416 45.333 6.416C44.563 6.416 44.031 6.85 44.031 7.606C44.031 8.362 44.563 8.796 45.333 8.796ZM56.5089 13.822C56.7329 10.602 54.3809 9.328 52.1969 9.328C50.0549 9.328 47.7169 10.448 47.7169 13.262C47.7169 16.076 50.0549 17.196 52.1969 17.196C54.0869 17.196 55.9209 16.454 56.3969 14.466H54.1569C53.8489 15.054 53.2889 15.474 52.1969 15.474C50.9089 15.474 50.2229 14.774 50.0269 13.822H56.5089ZM52.1969 11.05C53.3309 11.05 53.9189 11.582 54.1569 12.366H50.1249C50.4049 11.596 51.0769 11.05 52.1969 11.05ZM62.9269 9.328C61.3729 9.328 60.4769 10.168 60.1829 10.602V9.538H57.6629V17H60.1829V12.618C60.1829 11.792 60.7569 11.162 61.8769 11.162C63.0109 11.162 63.5289 11.792 63.5289 12.618V17H66.0489V12.058C66.0489 10.378 64.8449 9.328 62.9269 9.328ZM72.716 9.328C71.162 9.328 70.266 10.168 69.972 10.602V9.538H67.452V17H69.972V12.618C69.972 11.792 70.546 11.162 71.666 11.162C72.8 11.162 73.318 11.792 73.318 12.618V17H75.838V12.058C75.838 10.378 74.634 9.328 72.716 9.328ZM81.245 9.328C79.089 9.328 77.535 9.972 77.325 11.806H79.579C79.677 11.33 80.013 10.924 81.245 10.924C82.757 10.924 82.939 11.554 82.939 12.282V12.464C77.717 12.086 76.961 13.472 76.961 15.04C76.961 16.496 78.305 17.196 80.055 17.196C81.735 17.196 82.659 16.44 82.939 15.992V17H85.459V12.282C85.459 9.776 83.387 9.328 81.245 9.328ZM82.939 14.76C82.519 15.348 81.749 15.796 80.755 15.796C79.887 15.796 79.411 15.46 79.411 14.928C79.411 13.878 80.573 13.78 82.939 13.892V14.76Z" fill="#F7F5F9"/>
<path d="M98 14L93 9H103L98 14Z" fill="#F7F5F9"/>
<path d="M12 23.7279L5.636 17.3639C4.37734 16.1052 3.52019 14.5016 3.17293 12.7558C2.82567 11.0099 3.00391 9.20035 3.6851 7.55582C4.36629 5.91129 5.51984 4.50569 6.99988 3.51677C8.47992 2.52784 10.22 2 12 2C13.78 2 15.5201 2.52784 17.0001 3.51677C18.4802 4.50569 19.6337 5.91129 20.3149 7.55582C20.9961 9.20035 21.1743 11.0099 20.8271 12.7558C20.4798 14.5016 19.6227 16.1052 18.364 17.3639L12 23.7279ZM16.95 15.9499C17.9289 14.9709 18.5955 13.7236 18.8656 12.3658C19.1356 11.0079 18.9969 9.60052 18.4671 8.32148C17.9373 7.04244 17.04 5.94923 15.8889 5.18009C14.7378 4.41095 13.3844 4.00043 12 4.00043C10.6156 4.00043 9.26222 4.41095 8.11109 5.18009C6.95996 5.94923 6.06275 7.04244 5.53292 8.32148C5.00308 9.60052 4.86442 11.0079 5.13445 12.3658C5.40449 13.7236 6.07111 14.9709 7.05 15.9499L12 20.8999L16.95 15.9499ZM12 12.9999C11.4696 12.9999 10.9609 12.7892 10.5858 12.4141C10.2107 12.0391 10 11.5304 10 10.9999C10 10.4695 10.2107 9.96078 10.5858 9.58571C10.9609 9.21064 11.4696 8.99992 12 8.99992C12.5304 8.99992 13.0391 9.21064 13.4142 9.58571C13.7893 9.96078 14 10.4695 14 10.9999C14 11.5304 13.7893 12.0391 13.4142 12.4141C13.0391 12.7892 12.5304 12.9999 12 12.9999Z" fill="#F7F5F9"/>
</svg>
