<svg width="84" height="36" viewBox="0 0 84 36" fill="none" xmlns="http://www.w3.org/2000/svg">
<rect x="0.5" y="1" width="83" height="34" stroke="white" stroke-opacity="0.15"/>
<rect y="0.5" width="42" height="35" fill="white" fill-opacity="0.15"/>
<path d="M42 1.5V35" stroke="white" stroke-opacity="0.15"/>
<g clip-path="url(#clip0_2_2167)">
<path d="M32 11.1665H10V25.8333H32V11.1665Z" fill="#F0F0F0"/>
<path d="M22.375 11.1665H19.625V17.1248H10V19.8748H19.625V25.8331H22.375V19.8748H32V17.1248H22.375V11.1665Z" fill="#E50012"/>
<path d="M26.9207 21.0503L32.0003 23.8723V21.0503H26.9207Z" fill="#0052B4"/>
<path d="M23.3914 21.0503L32.0001 25.8329V24.4805L25.8258 21.0503H23.3914Z" fill="#0052B4"/>
<path d="M29.7071 25.8332L23.3914 22.3242V25.8332H29.7071Z" fill="#0052B4"/>
<path d="M23.3914 21.0503L32.0001 25.8329V24.4805L25.8258 21.0503H23.3914Z" fill="#F0F0F0"/>
<path d="M23.3914 21.0503L32.0001 25.8329V24.4805L25.8258 21.0503H23.3914Z" fill="#E50012"/>
<path d="M13.8818 21.0503L10 23.2069V21.0503H13.8818Z" fill="#0052B4"/>
<path d="M18.6085 21.6582V25.8327H11.0951L18.6085 21.6582Z" fill="#0052B4"/>
<path d="M16.1743 21.0503L10 24.4805V25.8329L18.6087 21.0503H16.1743Z" fill="#E50012"/>
<path d="M15.0796 15.949L10 13.127V15.949H15.0796Z" fill="#0052B4"/>
<path d="M18.6087 15.9491L10 11.1665V12.5189L16.1743 15.9491H18.6087Z" fill="#0052B4"/>
<path d="M12.2928 11.1665L18.6085 14.6755V11.1665H12.2928Z" fill="#0052B4"/>
<path d="M18.6087 15.9491L10 11.1665V12.5189L16.1743 15.9491H18.6087Z" fill="#F0F0F0"/>
<path d="M18.6087 15.9491L10 11.1665V12.5189L16.1743 15.9491H18.6087Z" fill="#E50012"/>
<path d="M28.1184 15.9491L32.0002 13.7925V15.9491H28.1184Z" fill="#0052B4"/>
<path d="M23.3914 15.341V11.1665H30.9048L23.3914 15.341Z" fill="#0052B4"/>
<path d="M25.8258 15.9491L32.0001 12.5189V11.1665L23.3914 15.9491H25.8258Z" fill="#E50012"/>
</g>
<g opacity="0.3">
<path d="M74 16.0976H52V11.6723C52 11.4628 52.1699 11.293 52.3793 11.293H73.6207C73.8301 11.293 74 11.4628 74 11.6723L74 16.0976Z" fill="#464655"/>
<path d="M73.6206 25.7064H52.3793C52.1699 25.7064 52 25.5366 52 25.3271V20.9019H74V25.3271C74 25.5366 73.8301 25.7064 73.6206 25.7064Z" fill="#F2C94C"/>
<path d="M74 16.0977H52V20.902H74V16.0977Z" fill="#E50012"/>
</g>
<defs>
<clipPath id="clip0_2_2167">
<rect width="22" height="22" fill="white" transform="translate(10 7.5)"/>
</clipPath>
</defs>
</svg>
